<?xml version="1.0" standalone="no"?>
<!DOCTYPE svg PUBLIC "-//W3C//DTD SVG 20010904//EN"
 "http://www.w3.org/TR/2001/REC-SVG-20010904/DTD/svg10.dtd">
<svg version="1.0" xmlns="http://www.w3.org/2000/svg"
 width="82.000000pt" height="77.000000pt" viewBox="0 0 82.000000 77.000000"
 preserveAspectRatio="xMidYMid meet">

<g transform="translate(0.000000,77.000000) scale(0.100000,-0.100000)"
fill="#000000" stroke="none">
<path d="M0 715 c0 -53 1 -54 28 -53 15 1 48 -1 75 -6 31 -5 47 -4 47 3 0 6
-4 11 -10 11 -5 0 -10 5 -10 10 0 6 9 10 20 10 11 0 20 -5 20 -10 0 -6 6 -10
13 -9 29 4 47 -2 47 -15 0 -11 -9 -13 -37 -9 -31 5 -36 3 -25 -8 16 -18 16
-69 -1 -69 -8 0 -26 14 -40 30 -26 29 -57 40 -57 20 0 -5 8 -14 18 -19 14 -9
11 -10 -15 -11 -20 0 -33 -5 -33 -12 0 -9 -4 -8 -10 2 -20 30 -30 -13 -30
-126 0 -82 4 -115 15 -130 17 -22 19 -56 6 -70 -6 -5 -13 -45 -17 -88 -7 -73
-6 -79 11 -72 42 16 55 -51 16 -81 -13 -9 72 -12 387 -13 l402 0 0 385 0 385
-410 0 -410 0 0 -55z m554 -143 c63 -9 96 -47 77 -88 -6 -14 -9 -35 -5 -46 6
-19 3 -20 -32 -12 -22 4 -54 8 -73 8 -32 1 -35 -2 -38 -31 -4 -31 -2 -33 26
-33 20 0 32 -6 36 -19 6 -19 33 -31 73 -31 25 0 27 -14 7 -50 -8 -14 -14 -33
-15 -42 0 -10 -18 -37 -40 -59 -37 -38 -43 -41 -79 -35 -29 4 -44 2 -55 -9 -8
-8 -24 -15 -34 -15 -29 0 -53 -11 -46 -21 11 -18 -20 -9 -43 13 -13 12 -23 33
-23 49 0 30 -57 99 -82 99 -17 0 -42 75 -36 105 5 30 28 30 28 1 0 -14 4 -26
9 -26 11 0 21 25 21 52 0 19 18 59 70 155 18 32 30 43 54 46 35 5 126 0 200
-11z m-359 -30 c-3 -7 -5 -17 -5 -21 0 -5 -12 -6 -27 -4 l-28 5 24 -20 c13
-11 22 -27 19 -38 -4 -24 -47 -32 -49 -10 -1 9 -2 19 -4 24 -1 4 -5 19 -9 34
-11 37 -4 43 43 43 31 1 40 -2 36 -13z m-105 -22 c8 -5 11 -10 5 -10 -5 0 -17
5 -25 10 -8 5 -10 10 -5 10 6 0 17 -5 25 -10z m120 -112 c0 -13 -23 -5 -28 10
-2 7 2 10 12 6 9 -3 16 -11 16 -16z m370 -12 c0 -9 -30 -14 -35 -6 -4 6 3 10
14 10 12 0 21 -2 21 -4z m80 -332 c0 -12 -4 -13 -21 -3 -12 6 -30 9 -40 6 -26
-7 -24 8 4 20 26 12 57 0 57 -23z"/>
<path d="M360 471 c0 -5 7 -12 16 -15 30 -11 3 -26 -37 -20 -50 8 -52 -10 -3
-26 56 -19 114 -1 114 35 0 5 -67 35 -79 35 -6 0 -11 -4 -11 -9z"/>
<path d="M396 283 c-11 -11 -6 -22 8 -17 7 3 30 -4 50 -15 35 -20 36 -20 36
-1 0 10 -6 22 -12 27 -16 10 -74 14 -82 6z"/>
<path d="M423 200 c16 -5 44 -20 63 -35 21 -16 34 -21 34 -13 -1 33 -42 58
-92 57 l-33 -1 28 -8z"/>
<path d="M35 620 c4 -6 11 -8 16 -5 14 9 11 15 -7 15 -8 0 -12 -5 -9 -10z"/>
</g>
</svg>
